<svg xmlns="http://www.w3.org/2000/svg" viewBox="0 0 85.641 97.891" id="cat">
  <g>
    <path fill="#2b2b2b" d="m30.4979,88.021c-.7338,0-1.4696-.0544-2.1868-.162-4.596-.6885-8.8567-3.638-11.1195-7.6973-1.8832-3.3864-2.3349-7.1887-2.5283-10.4617-.065-1.0827-.1047-2.1895-.1432-3.2602-.0892-2.4858-.1815-5.0561-.5977-7.4802-.989-5.7506-3.9024-11.0859-8.2036-15.0229-.2964-.2719-.5993-.537-.9023-.8024-1.0268-.8992-2.0885-1.8292-2.8946-3.006-1.0015-1.4519-1.7273-3.701-.7574-5.6528.7914-1.588,2.637-2.6134,4.7022-2.6134.116,0,.2317.0035.347.0099.2339.0111.4538.0345.666.0709,2.1834.3671,4.0138,1.7409,5.3642,2.8969,7.1141,6.1098,11.4952,15.3506,11.7202,24.72.0382,1.565-.0344,3.1446-.1046,4.6723-.0574,1.2463-.1166,2.5353-.1134,3.7914.0027.9866.0411,1.847.1177,2.6308.1027,1.0897.2964,2.1351.5761,3.1099l.0078.0297c.5362,1.8669,1.6613,4.4042,3.9811,5.9483.7094.47,1.5606.8009,2.4606.9564.4083.0718.8237.1082,1.2368.1082,2.2368,0,4.1222-1.0294,4.9205-2.6866.1118-.2322.3406-.3859.5979-.4016l.0435-.0014c.2413,0,.4674.1224.5988.327,1.0234,1.593,1.9292,3.0231,3.0235,4.8257.1728.2846.1252.651-.1146.882-2.1489,2.0709-4.9971,3.5024-8.0199,4.0308-.8838.1578-1.7857.2382-2.6783.2382Z"></path>
    <path d="m5.8667,32.5743c.1024,0,.2047.0029.3066.0087.197.0095.3916.0285.5862.0617,1.9055.3204,3.5549,1.4808,5.0215,2.7362,6.9745,5.9897,11.2509,15.0099,11.4716,24.1962.0688,2.8168-.2255,5.6385-.2184,8.4483.0024.8994.0332,1.7988.121,2.6982.1021,1.0822.2966,2.1785.6004,3.2369v.0024c.731,2.5629,2.0931,4.9171,4.2787,6.3718.8163.5411,1.7585.897,2.7338,1.0655.4485.079.9044.1187,1.3579.1187,2.3109,0,4.5682-1.0266,5.562-3.0898.9421,1.4666,1.8771,2.938,3.0139,4.8103-2.086,2.0101-4.7984,3.3438-7.6486,3.842-.8432.1506-1.6996.2275-2.5561.2275-.6958,0-1.3916-.0507-2.0809-.1539-4.4021-.6597-8.4364-3.4528-10.6031-7.34-1.7276-3.1064-2.2283-6.583-2.4396-10.1569-.2159-3.5976-.1447-7.2949-.7499-10.819-1.011-5.8782-4.0224-11.398-8.4245-15.4276-1.2863-1.1794-2.7054-2.2473-3.6902-3.6854-.9919-1.4381-1.4832-3.3722-.7072-4.9337.7285-1.4616,2.4105-2.2181,4.0646-2.2181m0-1.4238c-2.3329,0-4.4285,1.1802-5.339,3.0067-.9275,1.8663-.617,4.3093.8094,6.3774.8543,1.2475,1.9507,2.2076,3.0111,3.1361.3092.2708.6013.5266.8889.7903,4.1862,3.8319,7.0212,9.0236,7.9836,14.6194.4081,2.3768.4995,4.9231.5879,7.3856.0385,1.0746.0784,2.1857.144,3.2774.1981,3.3517.664,7.2528,2.6165,10.7637,2.3683,4.2489,6.8269,7.3353,11.6364,8.0561.7519.1125,1.5229.1697,2.2919.1697.9345,0,1.8788-.084,2.8065-.2497,3.1561-.5518,6.1362-2.0503,8.3862-4.2184.4796-.4622.5747-1.1949.2291-1.7642-1.0956-1.8046-2.0048-3.2404-3.033-4.8409-.2629-.4093-.7152-.6543-1.1978-.6543l-.0871.0026c-.5147.0315-.9721.3387-1.1959.8033-.8112,1.6838-2.7424,2.2838-4.2793,2.2838-.3718,0-.7455-.0327-1.1108-.097-.8083-.1396-1.5654-.4333-2.1943-.8501-2.133-1.4197-3.1811-3.7878-3.6855-5.5386l-.0112-.0415c-.2674-.9319-.453-1.9338-.5515-2.9779-.0748-.7665-.1122-1.605-.1147-2.5682-.0031-1.239.0557-2.5193.1127-3.7574.0708-1.5397.144-3.1317.1052-4.7219-.2299-9.5672-4.7036-19.0035-11.9674-25.2416-1.422-1.2173-3.3547-2.6636-5.713-3.0602-.2355-.0402-.4812-.0664-.7476-.0795-.1263-.0071-.2545-.0106-.3813-.0106Z"></path>
    <path fill="#1c1b1b" d="M40.7021 83.2394c-2.086 2.0101-4.7984 3.3438-7.6485 3.842-1.5283.2729-3.0993.3038-4.6371.0736-4.4021-.6597-8.4364-3.4528-10.6031-7.34-1.7276-3.1064-2.2283-6.583-2.4396-10.1569 0 0 3.18 14.3027 7.7553 11.7564 2.6104-1.45 1.3266-2.6318.6265-7.4515.731 2.5629 2.0931 4.9171 4.2787 6.3718.8163.5411 1.7585.897 2.7338 1.0655 2.7338.4818 5.731-.5031 6.92-2.9711.9421 1.4666 1.8771 2.938 3.0139 4.8103zM67.3321 92.4648c-.6969 0-1.3404-.2039-1.8612-.5893-1.1079-.8156-1.4301-2.1653-1.6652-3.4774l-4.4141-24.4667c-.0392-.2167.0242-.4391.1717-.6028l10.2836-11.4125c.1368-.152.3301-.2354.5288-.2354l.187.025c.2592.0704.4565.2809.5104.5441.282 1.3777.5826 2.8547.8707 4.3196 1.873 9.6243 1.2158 18.3964.4548 28.5538-.0569.7606-.1145 1.5293-.1717 2.3068l-.0308.1616c-.2994.9513-.6976 2.0489-1.3812 2.9761-.2269.3062-.4788.5838-.7499.8269-.7446.6697-1.7666 1.0702-2.7329 1.0702z"></path>
    <path d="m70.3758,52.3927c.2926,1.4297.5852,2.8677.8695,4.3141,1.994,10.246,1.0891,19.5519.2717,30.6711-.3051.9698-.6772,1.9564-1.275,2.7674-.1923.2592-.4097.5016-.6521.719-.6098.5486-1.4503.8885-2.2577.8885-.5155,0-1.0175-.1385-1.4377-.4496-.9197-.6772-1.1872-1.9104-1.3879-3.0308-1.4715-8.1558-2.943-16.3116-4.4144-24.4675l10.2836-11.4123m0-1.4239c-.3976,0-.784.1668-1.0578.4708l-10.2836,11.4123c-.2949.3272-.4217.7725-.3435,1.2059l2.1029,11.6559,2.3115,12.8116c.1921,1.0727.5142,2.871,1.9448,3.9245.6413.4748,1.4314.7269,2.282.7269,1.1542,0,2.3242-.457,3.21-1.2538.3045-.2731.5889-.5862.8434-.9291.7483-1.0151,1.1728-2.1812,1.4897-3.1885.033-.1049.0538-.2133.0618-.323.0571-.777.1147-1.5452.1716-2.3055.7648-10.2086,1.4253-19.025-.4657-28.742-.2713-1.3802-.5448-2.7279-.8722-4.3276-.1077-.5264-.5026-.9473-1.021-1.0884-.1236-.0336-.2493-.05-.3739-.05Z"></path>
    <path fill="#1c1b1b" d="m37.1651,86.0015c9.1215,4.335,19.727,5.4637,29.5592,3.1436-1.3628-3.6661-2.7214-7.3323-4.0842-10.9985-6.7178,1.6345-13.6655,2.3118-20.5673,2.0107-1.5927-.071-3.3066-.163-4.6569.6898s-2.6503,4.0131-.2508,5.1544Z"></path>
    <path fill="#2b2b2b" d="m64.112,96.1607c-1.8376-.0447-3.2777-1.4257-4.2802-4.1047-.1343-.3574-.2599-.7349-.3837-1.1534l-.7675-2.622c-.3825.5789-.8232,1.1277-1.3098,1.6278-.1141.1212-.2488.254-.3925.387-.3498.3304-.7396.6484-1.153.9395-2.6595,1.8818-6.1737,2.8505-10.742,2.9608-.4638.012-.9481.0192-1.4445.0218-.1437.0012-.2908.0016-.4384.0016-5.3364,0-11.7512-.7543-14.0083-6.6382-2.5206-6.584-1.2139-14.8484,3.4101-21.5679,3.2075-4.6561,7.8207-8.6519,14.1035-12.2167,1.8491-1.0482,3.3068-2.6927,4.1047-4.6306.0606-.1493.125-.3043.1893-.4596.1451-.3478.291-.6899.4391-1.0341.2841-.6653.5894-1.3608.9064-2.0656,0,0,.3593-.7975.4663-1.0327.2633-.5854.5348-1.1763.8087-1.7693.117-.2534.3701-.4135.6461-.4135l.0469.0016c1.8039.1187,3.6285.1764,5.5781.1764,2.3658,0,4.8635-.0864,7.6357-.2644l.0457-.0014c.2125,0,.4149.0952.5506.2609,1.5783,1.927,2.86,4.1045,3.8096,6.4723.2934.7228.5636,1.4957.8022,2.2946.0942.3161.1715.5953.2363.8542,1.0429,3.9807,1.1252,8.1429.2359,12.0287-.7198,3.1717-2.0789,6.212-4.039,9.035-.5129.7422-1.07,1.4692-1.6584,2.1641.5299,4.4465.8622,8.981.9879,13.4829.0095.3926.0193.7958.0145,1.2032-.0157,1.3492-.1859,2.3481-.5519,3.238-.3303.7907-.8696,1.504-1.5203,2.013-.6923.5323-1.4681.8116-2.2486.8116l-.0798-.001Z"></path>
    <path d="m67.5728,43.0153c1.5473,1.889,2.7908,4.0201,3.6997,6.2864.2966.7309.5553,1.4785.7808,2.2331.0807.2705.159.5482.2278.8235.9991,3.8136,1.1106,7.8597.2325,11.697-.7143,3.1467-2.086,6.1321-3.9298,8.7876-.5624.814-1.17,1.5971-1.8178,2.3447.5529,4.5564.8923,9.1389,1.0204,13.7284.0095.3892.019.7832.0142,1.1747-.0119,1.0204-.1139,2.0409-.4984,2.9759-.2776.6644-.7333,1.2791-1.3005,1.7228-.5269.405-1.1499.6605-1.8104.6605l-.062-.0007c-1.8463-.0452-2.9498-1.8226-3.6308-3.6428-.14-.3726-.2611-.7452-.3679-1.1059-.4153-1.4214-.8329-2.843-1.2483-4.2644-.4818,1.0916-1.1771,2.1073-2.0219,2.9758-.1163.1234-.2397.2444-.3655.3607-.3393.3204-.7024.6146-1.0797.8804-2.9617,2.0955-6.7206,2.7433-10.3491,2.8311-.4604.012-.9398.019-1.431.0214-.1442.001-.29.0016-.4363.0016-5.0308,0-11.2365-.6929-13.342-6.1812-2.6246-6.856-.8306-14.8604,3.3318-20.9095,3.5003-5.0808,8.4767-8.9419,13.8685-12.0008,1.9839-1.1249,3.5431-2.8691,4.4116-4.9788.0617-.1519.1258-.3062.1898-.4603.1424-.3418.2871-.6812.4343-1.0228.2919-.6835.5933-1.3693.9018-2.0551.1543-.3417.3085-.6859.4651-1.03.2635-.5861.534-1.1747.8069-1.7656,1.8661.1228,3.7377.1779,5.624.1779,2.5249,0,5.0767-.0986,7.682-.2657m.0001-1.4239l-.0912.0029c-2.7577.1768-5.2407.2628-7.5909.2628-1.9336,0-3.7426-.0572-5.5305-.1748l-.0939-.0031c-.5521,0-1.0583.3204-1.2922.8268-.2462.533-.5353,1.1611-.813,1.779-.1054.2316-.2126.4694-.3193.7064l-.1449.3215c-.3207.713-.6278,1.4128-.9135,2.0817-.1477.3431-.2947.6876-.4392,1.0346-.066.1588-.1315.3166-.1946.4719-.7349,1.785-2.0835,3.3058-3.7948,4.2761-6.3786,3.6188-11.0687,7.6852-14.3387,12.4316-2.2399,3.2552-3.7753,6.9589-4.4406,10.7114-.7158,4.0375-.3867,8.0193.9515,11.515,1.0951,2.8546,3.2588,4.8672,6.4314,5.9828,2.8372.9977,6.0617,1.1131,8.2404,1.1131.1498,0,.2992-.0006.4468-.0017.5008-.0024.9923-.0097,1.4574-.0218,4.712-.114,8.355-1.1254,11.1346-3.0922.4355-.3067.8499-.6444,1.2293-1.0022.1505-.1393.2924-.2794.422-.4165.1745-.1798.3435-.3655.5065-.5563.1229.4199.2458.8397.3684,1.2595.1305.4407.2614.8341.4017,1.2075,1.1135,2.9759,2.7721,4.5126,4.9289,4.5652l.0968.0012c.9388,0,1.8649-.3304,2.6781-.9555l.0096-.0075c.7451-.5829,1.362-1.3981,1.7369-2.2952.518-1.2599.597-2.5363.6083-3.5084.0051-.4208-.0049-.8301-.0146-1.226-.1236-4.4249-.4452-8.8765-.9567-13.2465.5299-.6397,1.0336-1.3044,1.502-1.9824,2.0105-2.8954,3.4063-6.0192,4.1469-9.2817.9135-3.9923.8302-8.2687-.2415-12.3649-.0669-.2669-.1463-.5541-.2429-.8778-.2454-.8214-.5232-1.6157-.8259-2.3616-.9745-2.4299-2.2932-4.6702-3.9175-6.6531-.2714-.3314-.6763-.5217-1.1014-.5217Z"></path>
    <path fill="#1c1b1b" d="m71.2725,49.3016c-2.0361,1.9293-7.1929,2.4609-10.2756,2.0242-3.4742-.4912-7.0386.5387-9.5304,3.0092-.9635.954-2.2022,1.6754-3.797,1.9601-7.2451,1.291-6.8868,8.6808-4.3025,8.1777,2.5819-.5007,10.1142-1.9365,15.7812,5.9542,3.6237,5.0476-7.1905,15.9093-15.513,23.0785-5.1022.0379-11.6116-.5316-13.7783-6.1796-2.6246-6.856-.8306-14.8604,3.3319-20.9095,3.5003-5.0808,8.4767-8.9419,13.8684-12.0009,1.9839-1.1248,3.5431-2.8691,4.4117-4.9788.0617-.1519.1258-.3062.1898-.4604.1424-.3417.2871-.6811.4343-1.0228.2919-.6835.5933-1.3693.9018-2.0551.1543-.3417.3085-.6859.4651-1.03.2635-.5861.534-1.1747.8069-1.7656,4.3641.2871,8.7544.204,13.306-.0878,1.5473,1.889,2.7908,4.0201,3.6997,6.2864Z"></path>
    <path fill="#2b2b2b" d="m59.5405,48.2896c-11.1042,0-19.108-4.5666-22.0339-6.53-1.0163-.6822-1.5659-1.8667-1.4342-3.0911.4605-4.283,1.4265-8.4307,2.7964-12.0126-1.8846-7.9044-1.3921-16.4147,1.3587-23.3856.0555-.1451.1138-.2917.1769-.4383.115-.2668.3761-.4302.6536-.4302l.2093.0315c5.0215,1.5428,10.0705,5.439,13.5136,8.5383,1.7935-.4445,3.715-.6696,5.7178-.6696,1.3208,0,2.6132.11,3.8478.3274,3.2148-3.0694,7.9881-7.0516,12.9451-9.1444.66-.2809,1.3382-.5302,2.0135-.7407l.2118-.0322c.282,0,.5465.1685.6587.4419,3.0401,7.4131,3.4994,16.4475,1.2685,24.8279,2.1133,4.8757,3.0638,9.6296,3.4444,12.0508.2106,1.3407-.4143,2.6536-1.5924,3.345-1.0754.6315-2.1778,1.2321-3.2765,1.7845-6.758,3.4022-13.648,5.1273-20.4789,5.1273"></path>
    <path d="m79.5167,1.4241c3.0376,7.4065,3.4196,16.3864,1.1747,24.6139,2.1451,4.8668,3.1063,9.6409,3.4936,12.1054.1646,1.0474-.3351,2.0838-1.2495,2.6205-1.0905.6402-2.169,1.2256-3.2361,1.7625-7.4245,3.7377-14.2442,5.0511-20.1589,5.0511-10.886,0-18.7116-4.446-21.6371-6.4092-.798-.5355-1.226-1.4683-1.1232-2.4238.4119-3.8302,1.2833-8.0596,2.8326-12.0397-1.9033-7.7909-1.4903-16.1609,1.2767-23.1734.0546-.1424.1092-.28.1685-.4177,4.6964,1.4428,9.5992,5.0642,13.5291,8.6428,1.7988-.4818,3.7661-.7427,5.9115-.7427,1.4428,0,2.8002.1329,4.077.382,3.619-3.4908,8.3272-7.2854,12.9928-9.2551.6526-.2776,1.3004-.515,1.9483-.7167m.0002-1.4241c-.1404,0-.283.0209-.4235.0647-.6981.2174-1.3987.4751-2.0824.7659-4.9201,2.0771-9.6441,5.9628-12.8976,9.038-1.1664-.185-2.3789-.2785-3.6148-.2785-1.9246,0-3.7776.2025-5.5207.6026-3.4883-3.1048-8.4917-6.9007-13.5017-8.4399-.1388-.0427-.2796-.063-.4183-.063-.5552,0-1.0773.3267-1.3074.8605-.0599.139-.1181.283-.1883.4659-1.4249,3.6136-2.2607,7.5614-2.4842,11.734-.213,3.9761.1394,7.9626,1.0477,11.8572-1.3501,3.5906-2.3029,7.7234-2.7612,11.985-.16,1.4883.5088,2.9285,1.7455,3.7584,2.9799,1.9997,11.1306,6.6508,22.4305,6.6508,6.943,0,13.9409-1.7506,20.7991-5.2032,1.112-.5594,2.2281-1.1672,3.3167-1.8063,1.432-.8406,2.1916-2.438,1.9352-4.0695-.3799-2.4175-1.3203-7.1286-3.3969-11.9964,2.1982-8.4602,1.7084-17.5589-1.3607-25.0421-.2242-.5468-.7534-.8839-1.3172-.8839Z"></path>
    <path fill="#d68580" d="m64.7803,40.1247c-.642,0-1.2607-.1224-1.7417-.3452-1.0159-.4701-1.5527-1.0037-1.5527-1.543,0-.9068,1.381-1.5908,3.2124-1.5908,1.5573,0,3.2125.5576,3.2125,1.5908,0,.3542-.2713.7309-.8799,1.2218-.5248.4236-1.3451.6664-2.2506.6664"></path>
    <path d="M64.6983 37.0017c1.5753 0 2.8565.5534 2.8565 1.2347 0 .2611-.3347.6119-.7476.9449-.4968.4007-1.2671.5875-2.0269.5875-.5786 0-1.1511-.1082-1.5923-.3124-.9054-.4191-1.3463-.8579-1.3463-1.22 0-.6813 1.2773-1.2347 2.8565-1.2347m0-.712c-1.7732 0-3.5684.6687-3.5684 1.9468 0 .6981.5919 1.326 1.7591 1.8661.527.2439 1.1988.3782 1.8913.3782.9853 0 1.8871-.2716 2.4741-.7453.7002-.5649 1.0123-1.0272 1.0123-1.499 0-1.2781-1.7951-1.9468-3.5684-1.9468M74.8852 38.5007c-.8634 0-1.8244-.1302-2.8562-.3867-.4245-.1052-.8664-.2344-1.3502-.3945-1.32-.4376-2.2362-.8978-2.2746-.9172-.1193-.0602-.1947-.1821-.1955-.3159-.0002-.0375-.0034-.9367.1204-2.2239.0823-.8595.2022-1.6852.3565-2.4542.5531-2.7756 1.5093-4.6774 2.8418-5.6519.7414-.5408 1.6369-.815 2.6619-.815.9055 0 1.9148.2137 3.0001.6356 1.2319.4796 2.2641 1.1106 2.7699 1.444.28.1812.441.302.4478.3071.0757.0569.1255.1417.1385.2355 0 0 .0145.1046.0366.2922.057.5095.1782 1.8539.0775 3.3734-.1826 2.8814-1.01 4.8781-2.4594 5.9335-.855.6224-1.9704.938-3.3151.938"></path>
    <path d="m74.1895,25.6974c.9754,0,1.9747.2629,2.871.6111,1.17.4556,2.1667,1.056,2.703,1.4096.2753.178.4296.2943.4296.2943,0,0,.0142.1021.0356.2848.0617.5505.1732,1.8415.0759,3.3081-.1305,2.0599-.6645,4.4686-2.3138,5.6694-.8756.6376-1.9727.8699-3.1057.8699-.9334,0-1.8911-.1577-2.7701-.3763-.4699-.1163-.916-.2516-1.3242-.3869-1.31-.4343-2.226-.897-2.226-.897,0,0-.0048-.9041.1187-2.188.0688-.7167.178-1.5544.3512-2.4182.4177-2.0955,1.2103-4.3428,2.7029-5.4344.7388-.5391,1.586-.7464,2.4519-.7464m.0002-.7119h-.0003c-1.1022,0-2.0683.2972-2.8715.8832-1.4073,1.0292-2.4102,3.0042-2.9815,5.8704-.1562.7787-.2779,1.6165-.3617,2.4893-.1254,1.3046-.1221,2.2214-.1219,2.2598.0014.2672.1523.5112.3909.6317.0393.0199.9785.4917,2.323.9374.4916.163.9421.2945,1.3772.4022,1.0591.2635,2.0489.3972,2.9412.3972,1.4217,0,2.6076-.3386,3.5247-1.0063,1.539-1.1205,2.4155-3.2065,2.6053-6.1999.1026-1.5465-.0211-2.9156-.079-3.4324-.0229-.1961-.038-.3038-.038-.3038-.0262-.1871-.1257-.3565-.2766-.4703-.0071-.0054-.1781-.1339-.4715-.3235-.5123-.3378-1.5691-.9837-2.8312-1.4752-1.1269-.4378-2.1795-.6597-3.1291-.6597Z"></path>
    <path fill="#d68580" d="m79.0792,22.7822c-.2632,0-.5005-.1358-.6345-.3633-1.5425-2.6159-3.3369-4.8036-5.3334-6.5024-.2571-.219-.3344-.5836-.1882-.8865,1.9865-4.1154,3.6578-7.0328,5.1323-9.6067.2986-.5211.5894-1.029.8739-1.5309.0636-.1122.1823-.1804.3096-.1804l.0315.0014c.1389.0123.2579.1046.3043.2363,2.1049,5.9703,2.1786,12.3052.2126,18.3194-.1005.3071-.385.5133-.7082.5133Z"></path>
    <path d="m79.239,4.0678c2.0385,5.7817,2.1618,12.1193.21,18.0905-.0571.1746-.2132.2678-.3698.2678-.1263,0-.2528-.0606-.328-.1882-1.4286-2.4226-3.2046-4.7166-5.4093-6.5928-.1334-.1135-.1744-.303-.0982-.4607,2.3818-4.9342,4.303-8.1308,5.9953-11.1167m-.0002-.7119c-.2546,0-.492.1366-.6192.3609-.2844.5018-.5753,1.0096-.8738,1.5306-1.4773,2.5788-3.1516,5.5016-5.1433,9.6276-.2168.449-.1024.9887.278,1.3124,1.9662,1.6732,3.735,3.8305,5.2574,6.4122.1988.3372.5507.5385.9412.5385.4776,0,.8981-.3049,1.0464-.7586,1.9904-6.0895,1.916-12.5035-.2153-18.5484-.0927-.2631-.3307-.4478-.6086-.4724l-.063-.0028Z"></path>
    <path fill="#d68580" d="m41.114,23.3691c-.3049,0-.5645-.1971-.6462-.4907-1.6183-5.8162-1.4251-12.329.5299-17.8682.034-.0963.1076-.1733.2022-.2116l.1335-.026.1589.0374c3.3315,1.6621,5.2448,4.4715,7.6099,9.0742.1544.3005.0599.6703-.2196.8606-2.854,1.9434-5.2711,4.7274-7.1841,8.2744-.1181.2191-.3366.3498-.5845.3498Z"></path>
    <path d="m41.3333,5.1286c3.1736,1.5833,5.0618,4.2664,7.4523,8.9184.0724.141.0276.3144-.1034.4036-3.123,2.1266-5.5056,5.0778-7.2971,8.3997-.0596.1105-.1655.1628-.2712.1628-.131,0-.2616-.0804-.3033-.2302-1.6191-5.8191-1.4024-12.2003.5226-17.6544m0-.7119c-.0905,0-.1812.0172-.2669.0519-.1892.0765-.3365.2306-.4044.423-1.9788,5.6065-2.1746,12.1972-.5371,18.0822.125.4493.5225.7513.9891.7513.3752,0,.7192-.2057.8978-.5368,1.8855-3.4962,4.2646-6.238,7.0712-8.1492.4277-.2913.5721-.8576.3359-1.3174-2.3998-4.67-4.3484-7.5242-7.7677-9.2301-.0998-.0498-.2087-.0749-.3178-.0749Z"></path>
    <path fill="#f9d669" d="m74.8852,38.5007c-.8634,0-1.8244-.1302-2.8562-.3867l-.128-.061c-1.045-.7859-1.8969-1.8467-2.4632-3.0681-.4599-.9898-.715-2.0302-.7588-3.092l.0064-.0841c.5533-2.776,1.5095-4.6778,2.842-5.6523.7414-.5408,1.6369-.815,2.6619-.815.9055,0,1.9148.2137,3.0001.6356,1.2319.4796,2.2641,1.1106,2.7699,1.444l.0692.0596c.1628.1818.3223.3803.4876.6068l.0661.1701c.0568.5078.1781,1.8522.0774,3.3716-.1826,2.8814-1.01,4.8781-2.4594,5.9335-.855.6224-1.9704.938-3.3151.938"></path>
    <path d="m74.1895,25.6974c.9754,0,1.9747.2629,2.871.6111,1.17.4556,2.1667,1.056,2.703,1.4096.1638.1827.318.3773.4651.579.0617.5505.1732,1.8415.0759,3.3081-.1305,2.0599-.6645,4.4686-2.3138,5.6694-.8756.6376-1.9727.8699-3.1057.8699-.9334,0-1.8911-.1577-2.7701-.3763-.9659-.7262-1.7917-1.7205-2.3542-2.9332-.4509-.9706-.6858-1.9768-.7261-2.9568.4177-2.0955,1.2103-4.3428,2.7029-5.4344.7388-.5391,1.586-.7464,2.4519-.7464m.0002-.7119h-.0003c-1.1022,0-2.0683.2972-2.8715.8832-1.4073,1.0292-2.4102,3.0042-2.9815,5.8704l-.0131.1685c.0456,1.1089.312,2.1948.7918,3.2275.5909,1.2741,1.4803,2.3816,2.572,3.2023.0763.0574.1634.0988.256.1218,1.0599.2637,2.0497.3973,2.942.3973,1.4217,0,2.6076-.3386,3.5247-1.0063,1.539-1.1205,2.4155-3.2065,2.6053-6.1999.1026-1.5465-.0211-2.9156-.079-3.4324-.0138-.123-.0594-.2403-.1324-.3403-.1725-.2365-.3394-.444-.51-.6345l-.1384-.1193c-.5176-.3413-1.5744-.9872-2.8365-1.4786-1.1269-.4378-2.1795-.6597-3.1291-.6597Z"></path>
    <path d="m72.167,32.6061c0-2.366.9406-4.2849.9406-4.2849,0,0,.9406,1.9189.9406,4.2849s-.9406,4.2848-.9406,4.2848c0,0-.9406-1.9188-.9406-4.2848"></path>
    <path fill="#fae5a4" d="m74.818,31.9208c-.2936,0-.5654.0452-.7871.1219.0113.1844.0174.3724.0174.5635,0,.1697-.0049.3371-.0138.5016.2211.076.4915.1207.7836.1207.7477,0,1.3538-.2928,1.3538-.6539s-.606-.6537-1.3538-.6537"></path>
    <path fill="#656565" d="m74.0308,32.0427c-.343.1186-.5665.3126-.5665.5319,0,.22.2251.4147.57.5332.009-.1645.0138-.3319.0138-.5016,0-.191-.0061-.379-.0174-.5635"></path>
    <path fill="#e5b5b2" d="m65.1646,37.3851c-.5032,0-.9111.1345-.9111.3002,0,.166.4079.3004.9111.3004s.9111-.1345.9111-.3004c0-.1658-.408-.3002-.9111-.3002"></path>
    <path fill="#1c1b1b" d="m67.8006,90.0906c-.0119,1.0204-.1139,2.0409-.4984,2.9759-.2776.6644-.7333,1.2791-1.3005,1.7228-.5434.4177-1.1889.6763-1.8724.6598-1.8463-.0452-2.9498-1.8226-3.6308-3.6428,2.6483,1.3313,5.8711,1.9483,7.302-1.7158Z"></path>
    <path fill="#2b2b2b" d="m46.9001,97.1788c-2.1601,0-4.1025-.1963-5.9381-.6003l-.1568-.035c-5.563-1.2795-9.0286-5.8141-9.2793-12.1321-.0607-1.5378.1011-3.0938.4812-4.6252l.0186-.0795c.3095-1.2315.7589-2.4496,1.3359-3.6211l1.0397-2.1077c1.6983-3.4426,4.5379-6.0626,7.9959-7.3773.4471-.1678.8963-.3143,1.3379-.4362,1.2415-.3409,2.5016-.5135,3.7466-.5135.445,0,.8924.0225,1.3298.0667,5.4239.5414,10.4219,4.53,12.1533,9.6992,1.54,4.5891.4651,9.9875-2.5958,13.7318.1416.0046.2809.0125.4166.0234,2.0853.1636,3.3908,1.0721,3.6747,2.5576.1847.9553-.1621,1.972-.9517,2.7882-.2333.2389-.4926.447-.773.6206-1.0516.6461-2.2583.8281-3.3228.9886-3.2447.4929-6.9233,1.0517-10.5127,1.0517Z"></path>
    <path d="m47.4813,66.3628c.4198,0,.8397.0208,1.2585.0632,5.1805.5173,9.8959,4.2787,11.5499,9.2171,1.6564,4.9361.1638,10.781-3.657,14.317.449-.0651.9361-.1046,1.425-.1046.2242,0,.4488.0083.6704.0262,1.4523.114,2.7766.6407,3.0328,1.9816.1519.7855-.1993,1.5757-.7642,2.1595-.1922.197-.4058.3679-.636.5103-.9113.5601-1.9981.7309-3.0542.89-3.4416.5229-6.9413,1.0439-10.4067,1.0439-1.9445,0-3.8777-.1639-5.785-.5836l-.159-.0355c-5.6954-1.31-8.5005-5.9637-8.7188-11.4645-.0593-1.5022.1044-2.9996.4675-4.452l.0047-.0237c.3014-1.2079.7381-2.3849,1.291-3.5074l1.0395-2.1074c1.5805-3.2037,4.2716-5.7571,7.6106-7.0268.4177-.1566.8448-.2966,1.2744-.4153,1.1586-.3182,2.3565-.488,3.5565-.488m0-1.4238c-1.3084,0-2.6319.1813-3.9337.5388-.4634.1281-.9328.281-1.3972.4551-3.6328,1.3813-6.6094,4.1258-8.3875,7.73l-1.0395,2.1074c-.6025,1.2232-1.071,2.4953-1.3929,3.7819l-.0175.0748c-.3942,1.5927-.5619,3.2115-.4987,4.8125.2643,6.6587,3.9362,11.4421,9.8224,12.796l.0165.0037.1461.0327c1.896.4172,3.8884.619,6.1006.619,3.6433,0,7.3502-.5632,10.6206-1.0601,1.0737-.1617,2.4123-.3633,3.5859-1.0846.3331-.2061.6379-.4506.9095-.7289.9576-.9897,1.3727-2.2362,1.143-3.4242-.3014-1.5768-1.5469-2.6488-3.4648-3.0172.9984-1.4579,1.7446-3.112,2.2005-4.8969.7332-2.8709.645-5.8063-.2552-8.4889-.8986-2.6827-2.598-5.0782-4.9144-6.9265-2.3159-1.8479-5.0283-2.9733-7.844-3.2545-.4592-.0465-.9309-.0702-1.4-.0702Z"></path>
    <path fill="#1c1b1b" d="m60.9969,94.0228c-.1922.197-.4058.3679-.636.5103-.9113.5601-1.9981.7309-3.0542.89-5.3727.8163-10.8854,1.628-16.1917.4603l-.159-.0355c-5.6955-1.31-8.5005-5.9637-8.7188-11.4645-.0593-1.5022.1044-2.9996.4675-4.452-.0831.5814.0618,11.989,11.6842,14.2812,13.3192,2.627,16.5392-1.7939,14.3393-4.3308,1.4523.114,2.7766.6407,3.0328,1.9816.1519.7855-.1993,1.5757-.7642,2.1595Z"></path>
    <path d="m52.2889,40.7113c-.5747,0-1.1339-.0676-1.662-.2012-2.9895-.756-5.0638-3.6014-6.2775-5.8552-.8593-1.5892-1.2838-2.8632-1.3013-2.9164-.0433-.1312-.0069-.2754.0932-.3704.0574-.0543,1.4272-1.3423,3.4285-2.5054,2.0617-1.2019,3.9949-1.8115,5.7456-1.8115.5746,0,1.1334.0674,1.6612.2009,2.0145.5104,3.8466,2.0087,5.4457,4.4526,1.4119,2.1524,2.1045,4.2296,2.1332,4.317.0432.131.0067.275-.0934.3699-.0463.0439-1.1532,1.0859-2.8301,2.1449l-.0178.0123c-2.2794,1.435-4.4074,2.1625-6.3254,2.1625"></path>
    <path d="m52.3153,27.4071c.5272,0,1.0543.0587,1.5742.1901,2.2853.579,4.0271,2.4562,5.2351,4.3024,1.4025,2.1382,2.0931,4.2336,2.0931,4.2336,0,0-1.1154,1.056-2.7908,2.1121l-.0023.0023c-1.6739,1.0539-3.9038,2.1078-6.1356,2.1078-.5273,0-1.0545-.0588-1.5747-.1903-2.862-.7238-4.872-3.4885-6.0514-5.6788-.8543-1.5805-1.2767-2.8596-1.2767-2.8596,0,0,1.374-1.3005,3.3627-2.4562,1.5923-.9284,3.5792-1.7634,5.5665-1.7634m.0002-.7119h0c-1.8145,0-3.808.6259-5.9252,1.8603-2.0359,1.1832-3.4349,2.4987-3.4935,2.5541-.2005.1898-.2732.4783-.1866.7404.018.0546.4522,1.3575,1.3264,2.9749,1.2469,2.3157,3.3879,5.2427,6.5032,6.0305.5565.1407,1.1451.212,1.7492.212,1.9861,0,4.1781-.746,6.5149-2.2172l.0276-.0183c1.7008-1.0755,2.8283-2.1368,2.8757-2.1816.2003-.1896.273-.4778.1867-.7398-.0294-.0892-.7365-2.2098-2.1739-4.4012-1.6491-2.5205-3.552-4.0692-5.6555-4.6021-.5567-.1406-1.145-.2119-1.7489-.2119Z"></path>
    <path fill="#f9d669" d="m52.2889,40.7113c-.5747,0-1.1339-.0676-1.662-.2012-2.9895-.756-5.0638-3.6014-6.2775-5.8552l-.0423-.1523-.0026-.1658c0-2.0334.7771-3.9562,2.1884-5.4141l.0766-.0598c2.062-1.2022,3.9951-1.8118,5.7458-1.8118.5746,0,1.1334.0674,1.6612.2009,2.0145.5104,3.8466,2.0087,5.4457,4.4526l.0384.0778c.2856.8211.4302,1.6804.4302,2.5544,0,1.4498-.4016,2.866-1.1613,4.0955l-.0511.0646-.0643.0519c-2.2794,1.435-4.4074,2.1625-6.3254,2.1625"></path>
    <path d="m52.3153,27.4071c.5272,0,1.0543.0587,1.5742.1901,2.2853.579,4.0272,2.4562,5.2351,4.3024.2658.7642.4106,1.5829.4106,2.4372,0,1.4334-.4058,2.7718-1.1082,3.9086l-.0023.0023c-1.6739,1.0539-3.9038,2.1078-6.1356,2.1078-.5273,0-1.0545-.0588-1.5747-.1903-2.862-.7238-4.872-3.4885-6.0514-5.6788l-.0023-.1495c0-2.0053.795-3.8302,2.0883-5.1663,1.5923-.9284,3.5792-1.7634,5.5665-1.7634m.0002-.7119h0c-1.8145,0-3.808.6259-5.9252,1.8603l-.153.1199c-1.4759,1.5247-2.2887,3.5353-2.2887,5.6614l.0031.183c.005.1063.0338.2103.0843.304,1.2475,2.3167,3.3884,5.2437,6.5037,6.0315.5565.1407,1.1451.212,1.7492.212,1.9861,0,4.1781-.746,6.5149-2.2172l.1237-.0987.105-.1318c.7946-1.2858,1.2146-2.7668,1.2146-4.2828,0-.9138-.1514-1.8124-.4501-2.6711l-.0767-.1559c-1.6495-2.5212-3.5525-4.0698-5.656-4.6028-.5567-.1406-1.145-.2119-1.7489-.2119Z"></path>
    <path d="m50.8682,34.3367c0-2.366.9406-4.2849.9406-4.2849,0,0,.9406,1.9189.9406,4.2849s-.9406,4.2848-.9406,4.2848c0,0-.9406-1.9188-.9406-4.2848"></path>
    <path fill="#fae5a4" d="m53.4515,33.683c-.2641,0-.5106.0365-.719.0997.0109.1814.0168.3663.0168.554s-.0059.3727-.0168.554c.2083.0632.4548.0997.719.0997.7476,0,1.3536-.2926,1.3536-.6537s-.606-.6537-1.3536-.6537"></path>
    <path fill="#656565" d="m52.7326,33.7827c-.3813.1157-.6348.3205-.6348.554s.2535.4384.6348.554c.0109-.1813.0168-.3663.0168-.554s-.0059-.3726-.0168-.554"></path>
  </g>
</svg>
